<svg id="_x33_0" enable-background="new 0 0 64 64" height="512" viewBox="0 0 64 64" width="512" xmlns="http://www.w3.org/2000/svg"><g><g><g><path d="m52 22v17.54c-.59-.34-1.27-.54-2-.54s-1.42.2-2 .54v-17.54c0-8.84-7.16-16-16-16-4.42 0-8.42 1.79-11.32 4.68-2.89 2.9-4.68 6.9-4.68 11.32v28h-4v-28c0-5.52 2.24-10.52 5.86-14.14s8.62-5.86 14.14-5.86c11.05 0 20 8.95 20 20z" fill="#aab2bd"/></g><g><path d="m40 41c-6.39 1.92-12.22 5.35-17 10-.16 0-.32.02-.47.06l-1.53-3.06c-1.38 0-2.63.56-3.54 1.46-.17.17-.32.35-.46.54h-1v-28c0-4.42 1.79-8.42 4.68-11.32 2.9-2.89 6.9-4.68 11.32-4.68 8.84 0 16 7.16 16 16v17.54c-.79.46-1.4 1.18-1.73 2.03-.68-.35-1.45-.57-2.27-.57-1.53 0-2.91.69-3.82 1.78z" fill="#ccd1d9"/></g><g><path d="m37.79 29.58c-.55-1.1-1.39-1.99-2.39-2.61s-2.18-.97-3.4-.97c2.21 0 4-1.79 4-4s-1.79-4-4-4-4 1.79-4 4 1.79 4 4 4c-2.45 0-4.69 1.39-5.79 3.58l-.21.42h-2v-16h16v16h-2z" fill="#ffeaa7"/></g><g><path d="m37.79 29.58.21.42h-12l.21-.42c1.1-2.19 3.34-3.58 5.79-3.58 1.22 0 2.4.35 3.4.97s1.84 1.51 2.39 2.61z" fill="#75b1f2"/></g><g><circle cx="32" cy="22" fill="#f0d0b4" r="4"/></g><g><path d="m62 51v4c0 .55-.45 1-1 1h-5.1c.07-.32.1-.66.1-1 0-.94-.28-1.82-.73-2.57 1.02-.52 1.84-1.38 2.3-2.43h.01 3.42c.55 0 1 .45 1 1z" fill="#838f9b"/></g><g><path d="m17 50c-.63.83-1 1.87-1 3h-2c-1.1 0-2 .9-2 2v1h-9c-.55 0-1-.45-1-1v-4c0-.55.45-1 1-1h9 4z" fill="#838f9b"/></g><g><path d="m40.99 50.88c4.42 2.16 8.4 5.15 11.73 8.82.1.1.19.2.28.3l-1.55.44c-3.62 1.04-7.36 1.56-11.12 1.56-2.43 0-4.84-.22-7.22-.65-2.37-.43-4.71-1.07-6.98-1.93l-.26-.09v-.01c1.24-.61 2.28-1.62 2.92-2.9l.21-.42-4.08-2.45c.05-.17.08-.36.08-.55 0-1.1-.9-2-2-2 4.78-4.65 10.61-8.08 17-10l.18 1.78z" fill="#ffeaa7"/></g><g><path d="m55.9 56c-.35 1.71-1.56 3.1-3.17 3.69l-.01.01c-3.33-3.67-7.31-6.66-11.73-8.82l-.81-8.1c.91-1.09 2.29-1.78 3.82-1.78.82 0 1.59.22 2.27.57.33-.85.94-1.57 1.73-2.03.58-.34 1.27-.54 2-.54s1.41.2 2 .54c1.2.69 2 1.98 2 3.46 0 .03-.01.07-.01.1 2.29.46 4.01 2.48 4.01 4.9 0 .72-.15 1.39-.43 2-.46 1.05-1.28 1.91-2.3 2.43.45.75.73 1.63.73 2.57 0 .34-.03.68-.1 1z" fill="#ff826e"/></g><g><path d="m22.34 56.06.35 2.11-6.69 3.83-1.74-5.21z" fill="#ffc729"/></g><g><path d="m21.2 53.87c.2.4.53.73.93.93l.21 1.26-8.08.73-2.26.21v-1-1c0-1.1.9-2 2-2h2z" fill="#fcd770"/></g><g><path d="m22.13 54.8c.26.13.56.2.87.2.91 0 1.68-.61 1.92-1.45l4.08 2.45-.21.42c-.64 1.28-1.68 2.29-2.92 2.9-.88.44-1.86.68-2.87.68l-.31-1.83-.35-2.11z" fill="#fcd770"/></g><g><path d="m21 53c0 .31.07.61.2.87l-5.2-.87c0-1.13.37-2.17 1-3 .14-.19.29-.37.46-.54.91-.9 2.16-1.46 3.54-1.46l1.53 3.06c-.88.21-1.53 1-1.53 1.94z" fill="#fcd770"/></g><g><path d="m25 53c0 .19-.03.38-.08.55-.24.84-1.01 1.45-1.92 1.45-.31 0-.61-.07-.87-.2-.4-.2-.73-.53-.93-.93-.13-.26-.2-.56-.2-.87 0-.94.65-1.73 1.53-1.94.15-.04.31-.06.47-.06 1.1 0 2 .9 2 2z" fill="#ffc729"/></g></g><g><path d="m23 33h18v2h-18z"/><path d="m39 37h2v2h-2z"/><path d="m27 37h10v2h-10z"/><path d="m23 37h2v2h-2z"/><path d="m23 31h18v-18h-18zm6-9c0-1.654 1.346-3 3-3s3 1.346 3 3-1.346 3-3 3-3-1.346-3-3zm-1.216 7c1.025-1.25 2.549-2 4.216-2s3.191.75 4.216 2zm-2.784-14h14v14h-.394c-.759-1.444-1.936-2.56-3.344-3.242 1.056-.918 1.738-2.253 1.738-3.758 0-2.757-2.243-5-5-5s-5 2.243-5 5c0 1.505.682 2.84 1.737 3.758-1.407.682-2.585 1.798-3.343 3.242h-.394z"/><circle cx="44" cy="45" r="1"/><circle cx="48" cy="51" r="1"/><circle cx="51" cy="47" r="1"/><path d="m61 49h-2.094c.055-.328.094-.66.094-1 0-2.578-1.66-4.85-4.045-5.672-.182-1.35-.917-2.516-1.955-3.302v-17.026c0-11.579-9.42-21-21-21s-21 9.421-21 21v27h-8c-1.103 0-2 .897-2 2v4c0 1.103.897 2 2 2h8v1.095l2.566-.233 1.871 5.612 6.508-3.719.208 1.245h.847c1.025 0 2.009-.212 2.913-.593 4.629 1.719 9.481 2.593 14.422 2.593 3.854 0 7.685-.537 11.387-1.595l3.083-.881-.486-.547c1.076-.721 1.891-1.765 2.324-2.978h4.357c1.103 0 2-.897 2-2v-4c0-1.102-.897-1.999-2-1.999zm-48-27c0-10.477 8.523-19 19-19s19 8.523 19 19v16.107c-.324-.066-.657-.107-1-.107-.342 0-.675.043-1 .109v-16.109c0-9.374-7.626-17-17-17s-17 7.626-17 17v27h-2zm27.875 17.693-1.162.349c-6.232 1.869-11.997 5.204-16.752 9.643l-1.343-2.685h-.618c-1.538 0-2.937.586-4 1.54v-26.54c0-8.271 6.729-15 15-15s15 6.729 15 15v17.005c-.465.352-.873.783-1.195 1.287-1.636-.538-3.385-.292-4.816.539zm-23.788 12.474c.344-1.616 1.667-2.875 3.317-3.123l.788 1.577c-.633.483-1.062 1.207-1.158 2.037zm5.913 1.833c-.551 0-1-.448-1-1s.449-1 1-1 1 .448 1 1-.449 1-1 1zm-20 1v-4h12.35c-.114.322-.202.656-.26 1h-1.09c-1.654 0-3 1.346-3 3zm10 0c0-.552.449-1 1-1h1.919l4.679.78c.107.144.224.279.355.401l-7.953.724zm3.563 5.526-.95-2.851 5.897-.536.085.512zm6.778-4.56c.774-.089 1.454-.469 1.935-1.034l2.4 1.44c-.844 1.393-2.245 2.322-3.839 2.564zm16.994 5.034c-4.197 0-8.327-.663-12.298-1.968.66-.607 1.228-1.326 1.646-2.163l.625-1.25-4.312-2.587c.001-.011.004-.021.004-.032 0-.952-.454-1.792-1.147-2.341 4.126-3.715 9.008-6.577 14.275-8.333l.693 6.927c-2.014-.875-4.1-1.604-6.261-2.144l-.318-.079-.483 1.941.317.078c6.924 1.732 13.145 5.328 18.084 10.436-3.52 1.005-7.161 1.515-10.825 1.515zm14.478-9.458-.952.489.552.916c.39.647.587 1.338.587 2.053 0 1.461-.806 2.799-2.056 3.497-3.198-3.396-6.907-6.195-11.016-8.273l-.708-7.081c1.18-1.146 2.987-1.512 4.597-.682l.991.51.4-1.041c.45-1.172 1.546-1.93 2.792-1.93 1.638 0 2.974 1.32 3 2.952l-.033.962.826.166c1.858.374 3.207 2.023 3.207 3.92 0 1.492-.838 2.85-2.187 3.542zm6.187 3.458h-4c0-.748-.148-1.494-.432-2.2.663-.489 1.202-1.106 1.609-1.8h2.823z"/></g></g></svg>